<svg width="950" height="361" viewBox="0 0 950 361" fill="none" xmlns="http://www.w3.org/2000/svg">
<g clip-path="url(#clip0_84_7)">
<path d="M520.694 138.631L504.019 141.569L504.061 67.8372L553.679 59.0929L553.638 132.824L536.96 135.764L536.933 79.5267L520.666 82.3938L520.694 138.631Z" fill="#164900"/>
<path d="M576.859 128.731L558.955 131.886L575.468 55.2518L601.045 50.7433L617.474 121.573L600.798 124.511L589.625 70.8706L587.987 71.1589L576.859 128.731Z" fill="#164900"/>
<path d="M634.292 115.553C630.128 113.691 626.61 110.694 623.735 106.567C620.86 102.439 618.911 97.4815 617.887 91.6939C616.491 83.7962 616.671 76.2673 618.43 69.1124C620.187 61.9574 623.266 55.9894 627.661 51.2133C632.055 46.436 637.287 43.513 643.357 42.443C648.131 41.6016 652.596 42.0976 656.755 43.926C660.91 45.7569 664.426 48.7357 667.302 52.8625C670.176 56.9892 672.126 61.9496 673.15 67.7359C674.547 75.6349 674.367 83.1781 672.615 90.3668C670.863 97.5581 667.788 103.54 663.395 108.318C659 113.095 653.767 116.018 647.697 117.088C642.922 117.93 638.453 117.418 634.292 115.553ZM653.097 95.1246C654.999 92.3666 656.284 88.8943 656.95 84.7026C657.616 80.5148 657.552 76.1712 656.757 71.677C655.999 67.3879 654.549 64.1675 652.41 62.0172C650.272 59.8668 647.736 59.0487 644.804 59.5655C642.144 60.0356 639.861 61.6484 637.958 64.4065C636.055 67.1646 634.769 70.6395 634.104 74.8272C633.438 79.0176 633.503 83.3599 634.298 87.8528C635.045 92.0757 636.49 95.2779 638.636 97.4633C640.78 99.6487 643.317 100.482 646.251 99.9656C648.911 99.4955 651.193 97.8827 653.097 95.1246Z" fill="#164900"/>
<path d="M682.029 110.194L682.071 36.462L705.807 32.2781C712.149 31.1614 717.464 31.8925 721.755 34.4701C726.043 37.049 728.676 41.0978 729.651 46.6114C730.361 50.6316 730.008 54.5013 728.593 58.2255C727.176 61.951 724.93 64.8584 721.852 66.9438L721.841 67.4736C724.01 68.2151 725.938 69.6656 727.622 71.8263C729.305 73.9871 730.417 76.5998 730.96 79.663C731.634 83.4768 731.319 87.1672 730.016 90.7304C728.711 94.2962 726.662 97.3244 723.869 99.8176C721.073 102.311 717.836 103.882 714.152 104.531L682.029 110.194ZM707.796 90.0656C710.183 89.6448 711.932 88.5982 713.044 86.9283C714.155 85.2584 714.518 83.334 714.133 81.155C713.819 79.3838 713.078 78.0749 711.909 77.2282C710.739 76.3816 709.301 76.1076 707.597 76.4076L698.696 77.9762L698.691 91.6706L707.796 90.0656ZM707.229 61.2017C709.479 60.8044 711.186 59.8201 712.35 58.2449C713.512 56.6724 713.884 54.6935 713.463 52.3093C713.15 50.5381 712.407 49.2292 711.239 48.3826C710.068 47.5359 708.631 47.2632 706.926 47.5645L698.742 49.0059L698.738 62.6976L707.229 61.2017Z" fill="#164900"/>
<path d="M749.418 113.06L732.64 116.018L732.565 83.382L738.807 82.2821L751.127 24.2895L776.499 19.8187L788.834 73.4651L794.971 72.3821L795.047 105.018L778.371 107.957L778.399 93.208L749.345 98.3294L749.418 113.06ZM763.44 40.2355L756.301 79.1994L772.363 76.3686L765.181 39.9291L763.44 40.2355Z" fill="#164900"/>
<path d="M817.787 86.266L799.883 89.4215L799.925 15.6893L816.294 12.8053L816.303 51.0342L817.939 50.7459L833.071 9.84721L850.976 6.69177L850.933 80.4226L834.564 83.308L834.555 45.0791L833.02 45.3492L817.787 86.266Z" fill="#164900"/>
<path d="M862.288 78.4229L862.331 4.68941L886.066 0.506826C892.408 -0.61121 897.723 0.121161 902.014 2.69745C906.302 5.27894 908.935 9.32518 909.91 14.8414C910.62 18.859 910.267 22.7287 908.851 26.4542C907.435 30.1797 905.189 33.0858 902.113 35.1725L902.101 35.701C904.27 36.4438 906.197 37.893 907.881 40.0537C909.564 42.2158 910.676 44.8272 911.219 47.8917C911.893 51.7055 911.578 55.3946 910.274 58.9578C908.97 62.5236 906.921 65.5518 904.127 68.045C901.334 70.5395 898.095 72.112 894.411 72.76L862.288 78.4229ZM888.056 58.293C890.442 57.8723 892.191 56.8269 893.303 55.1557C894.414 53.4858 894.778 51.5614 894.392 49.3824C894.08 47.6125 893.337 46.3023 892.168 45.4556C890.998 44.609 889.56 44.3363 887.856 44.6363L878.955 46.2049L878.95 59.898L888.056 58.293ZM887.488 29.4291C889.739 29.0331 891.444 28.0475 892.609 26.4737C893.771 24.8998 894.143 22.9209 893.722 20.5367C893.409 18.7681 892.666 17.4579 891.498 16.6126C890.327 15.7633 888.89 15.4906 887.186 15.7919L879.001 17.2333L878.997 30.9263L887.488 29.4291Z" fill="#164900"/>
<path d="M524.606 212.284L505.469 215.655L505.492 178.179L524.627 174.808L524.63 179.677L510.383 182.189L510.405 193.535L523.873 191.162L523.816 195.99L510.399 198.353L510.406 209.915L524.655 207.404L524.606 212.284Z" fill="#164900"/>
<path d="M530.43 211.258L530.451 173.78L541.215 171.884C543.121 171.549 544.829 171.655 546.34 172.211C547.85 172.764 549.088 173.655 550.056 174.876C551.022 176.096 551.649 177.522 551.937 179.148C552.298 181.189 552.139 183.173 551.46 185.092C550.781 187.014 549.697 188.518 548.209 189.601L548.203 189.868C549.202 190.266 550.105 191.027 550.911 192.149C551.718 193.276 552.247 194.546 552.498 195.966C552.847 197.938 552.695 199.857 552.041 201.721C551.387 203.584 550.344 205.16 548.91 206.448C547.475 207.736 545.804 208.547 543.897 208.882L530.43 211.258ZM542.317 188.123C543.981 187.83 545.277 186.97 546.204 185.539C547.13 184.108 547.435 182.493 547.116 180.693C546.859 179.241 546.252 178.135 545.296 177.374C544.339 176.616 543.202 176.353 541.885 176.584L535.333 177.74L535.401 189.341L542.317 188.123ZM542.915 204.238C543.92 204.061 544.816 203.617 545.602 202.908C546.388 202.199 546.962 201.303 547.325 200.223C547.688 199.143 547.763 197.995 547.548 196.784C547.31 195.434 546.728 194.367 545.804 193.585C544.878 192.803 543.826 192.515 542.648 192.723L535.368 194.006L535.375 205.568L542.915 204.238Z" fill="#164900"/>
<path d="M558.613 206.29L558.635 168.814L569.763 166.851C571.531 166.539 573.193 166.695 574.75 167.313C576.307 167.928 577.618 168.928 578.686 170.31C579.752 171.694 580.454 173.335 580.791 175.239C581.207 177.595 581.062 179.859 580.356 182.033C579.651 184.212 578.466 186.053 576.803 187.56C575.139 189.066 573.145 190.024 570.823 190.435L563.543 191.718L563.553 205.42L558.613 206.29ZM570.654 185.539C571.902 185.318 572.966 184.765 573.846 183.877C574.726 182.991 575.355 181.901 575.734 180.602C576.111 179.304 576.175 177.945 575.924 176.527C575.63 174.865 574.939 173.587 573.852 172.689C572.763 171.793 571.508 171.468 570.087 171.72L563.587 172.865L563.582 186.786L570.654 185.539Z" fill="#164900"/>
<path d="M593.087 198.688C591.095 197.735 589.415 196.221 588.047 194.143C586.678 192.066 585.737 189.57 585.223 186.664C584.526 182.719 584.602 178.906 585.452 175.221C586.302 171.538 587.821 168.461 590.012 165.986C592.202 163.513 594.839 162.004 597.925 161.459C600.247 161.051 602.413 161.321 604.421 162.269C606.43 163.217 608.119 164.731 609.488 166.809C610.856 168.889 611.798 171.38 612.311 174.289C613.009 178.234 612.924 182.049 612.057 185.736C611.189 189.422 609.661 192.502 607.471 194.974C605.281 197.447 602.66 198.953 599.61 199.491C597.252 199.906 595.079 199.639 593.087 198.688ZM604.397 191.234C605.834 189.357 606.819 186.999 607.354 184.155C607.888 181.314 607.886 178.369 607.347 175.322C606.79 172.175 605.691 169.798 604.049 168.196C602.407 166.593 600.46 165.994 598.207 166.388C596.23 166.739 594.524 167.85 593.086 169.725C591.649 171.606 590.661 173.956 590.124 176.779C589.587 179.605 589.588 182.542 590.126 185.586C590.689 188.77 591.791 191.164 593.433 192.767C595.075 194.367 597.022 194.969 599.276 194.572C601.252 194.224 602.959 193.112 604.397 191.234Z" fill="#164900"/>
<path d="M623.041 194.933L618.1 195.805L618.122 158.327L641.522 154.203L641.501 191.679L636.561 192.551L636.543 160.007L623.023 162.389L623.041 194.933Z" fill="#164900"/>
<path d="M667.656 187.069L648.52 190.442L648.542 152.967L667.678 149.593L667.681 154.465L653.433 156.976L653.455 168.321L666.923 165.947L666.866 170.775L653.449 173.141L653.457 184.703L667.705 182.191L667.656 187.069Z" fill="#164900"/>
<path d="M680.76 184.76L673.48 186.043L673.501 148.567L678.441 147.697L678.401 176.878L679.129 176.751L689.83 145.69L697.11 144.407L697.088 181.882L692.148 182.752L692.136 153.58L691.409 153.707L680.76 184.76ZM681.018 141.191C679.706 140.14 678.942 138.597 678.725 136.564L682.625 135.878C682.704 136.935 683.004 137.719 683.525 138.236C684.045 138.75 684.685 138.94 685.449 138.807C686.211 138.672 686.802 138.272 687.221 137.61C687.641 136.948 687.876 136.057 687.929 134.943L691.777 134.265C691.762 136.408 691.24 138.197 690.205 139.628C689.171 141.059 687.752 141.934 685.951 142.251C683.975 142.599 682.33 142.246 681.018 141.191Z" fill="#164900"/>
<path d="M710.761 177.948C708.77 176.995 707.09 175.481 705.721 173.4C704.353 171.323 703.412 168.83 702.898 165.923C702.2 161.978 702.276 158.163 703.126 154.481C703.976 150.798 705.496 147.718 707.687 145.246C709.877 142.771 712.513 141.262 715.599 140.719C718.858 140.145 721.694 140.823 724.109 142.75C726.524 144.682 728.247 147.554 729.279 151.369L724.339 152.239C723.621 149.798 722.526 148.001 721.054 146.851C719.581 145.7 717.857 145.3 715.882 145.648C713.905 145.996 712.199 147.11 710.761 148.985C709.324 150.866 708.336 153.213 707.799 156.039C707.261 158.865 707.263 161.799 707.801 164.843C708.364 168.027 709.466 170.422 711.109 172.024C712.75 173.626 714.697 174.229 716.951 173.832C718.927 173.484 720.57 172.463 721.878 170.767C723.188 169.074 724.118 166.858 724.671 164.118L729.559 163.256C728.894 167.588 727.515 171.105 725.419 173.811C723.325 176.519 720.613 178.163 717.284 178.75C714.927 179.166 712.753 178.898 710.761 177.948Z" fill="#164900"/>
<path d="M739.831 174.348L734.891 175.218L734.913 137.743L739.853 136.873L739.845 154.112L751.137 134.883L757.065 133.839L744.748 154.852L757.355 171.26L751.896 172.221L739.842 156.519L739.831 174.348Z" fill="#164900"/>
<path d="M784.342 166.503L779.35 167.383L777.001 158.644L764.365 160.87L761.982 170.445L756.575 171.398L766.632 132.151L774.329 130.795L784.342 166.503ZM770.307 136.857L765.576 155.894L775.768 154.096L771.035 136.73L770.307 136.857Z" fill="#164900"/>
<path d="M509.77 275.486C507.779 274.536 506.098 273.021 504.73 270.941C503.361 268.861 502.42 266.37 501.906 263.462C501.208 259.517 501.285 255.704 502.135 252.019C502.985 248.336 504.505 245.259 506.695 242.786C508.885 240.311 511.522 238.802 514.608 238.26C517.866 237.683 520.703 238.361 523.118 240.291C525.532 242.223 527.256 245.095 528.288 248.91L523.348 249.78C522.629 247.336 521.534 245.542 520.062 244.389C518.589 243.241 516.866 242.838 514.889 243.186C512.914 243.537 511.207 244.648 509.769 246.526C508.332 248.404 507.344 250.754 506.808 253.58C506.269 256.403 506.271 259.34 506.809 262.384C507.372 265.568 508.475 267.96 510.117 269.565C511.758 271.165 513.705 271.77 515.959 271.372C517.935 271.022 519.578 270.001 520.887 268.308C522.196 266.615 523.126 264.397 523.679 261.659L528.567 260.797C527.902 265.126 526.523 268.645 524.428 271.352C522.333 274.058 519.621 275.704 516.293 276.291C513.935 276.707 511.761 276.439 509.77 275.486Z" fill="#164900"/>
<path d="M544.351 270.918L539.411 271.788L539.437 239.182L530.389 240.776L530.385 235.907L553.421 231.845L553.424 236.717L544.377 238.312L544.351 270.918Z" fill="#164900"/>
<path d="M563.642 265.991C561.65 265.041 559.97 263.527 558.602 261.444C557.233 259.366 556.292 256.875 555.778 253.967C555.081 250.022 555.157 246.207 556.007 242.524C556.857 238.841 558.377 235.761 560.567 233.289C562.757 230.816 565.394 229.308 568.48 228.762C570.802 228.354 572.968 228.622 574.977 229.572C576.985 230.52 578.674 232.035 580.043 234.112C581.411 236.192 582.353 238.683 582.866 241.589C583.564 245.537 583.479 249.352 582.612 253.04C581.744 256.725 580.216 259.805 578.026 262.277C575.836 264.752 573.215 266.259 570.165 266.796C567.807 267.212 565.634 266.944 563.642 265.991ZM574.952 258.538C576.389 256.66 577.374 254.302 577.909 251.458C578.443 248.617 578.441 245.672 577.902 242.625C577.345 239.478 576.246 237.101 574.604 235.499C572.962 233.897 571.015 233.294 568.762 233.691C566.785 234.039 565.079 235.154 563.641 237.031C562.204 238.909 561.216 241.257 560.679 244.085C560.142 246.908 560.143 249.845 560.681 252.889C561.245 256.073 562.346 258.465 563.988 260.067C565.63 261.67 567.577 262.272 569.831 261.875C571.807 261.527 573.514 260.415 574.952 258.538Z" fill="#164900"/>
<path d="M589.903 262.888L584.547 263.833L594.293 224.643L601.989 223.285L611.64 259.057L606.648 259.937L598.695 229.219L597.863 229.367L589.903 262.888Z" fill="#164900"/>
<path d="M622.091 257.216L614.811 258.499L614.833 221.023L619.773 220.15L619.732 249.334L620.46 249.204L631.161 218.143L638.441 216.86L638.419 254.336L633.479 255.208L633.467 226.033L632.74 226.163L622.091 257.216Z" fill="#164900"/>
<path d="M671.684 255.969L666.692 256.847L666.707 249.352L645.438 253.099L645.408 215.634L650.348 214.761L650.356 247.253L663.461 244.945L663.452 212.453L668.392 211.583L668.401 244.072L671.676 243.495L671.684 255.969Z" fill="#164900"/>
<path d="M700.87 243.329L695.878 244.21L693.529 235.47L680.892 237.696L678.51 247.272L673.102 248.225L683.16 208.978L690.856 207.622L700.87 243.329ZM686.834 213.684L682.103 232.72L692.295 230.923L687.562 213.556L686.834 213.684Z" fill="#164900"/>
<path d="M719.693 240.013L714.753 240.883L714.775 203.407L719.715 202.534L719.704 218.543L733.276 216.151L733.287 200.142L738.227 199.272L738.206 236.748L733.266 237.621L733.264 221.238L719.692 223.63L719.693 240.013Z" fill="#164900"/>
<path d="M769.717 231.196L764.725 232.073L762.375 223.334L749.739 225.563L747.357 235.135L741.949 236.088L752.007 196.844L759.703 195.488L769.717 231.196ZM755.68 201.55L750.95 220.584L761.142 218.789L756.409 201.42L755.68 201.55Z" fill="#164900"/>
<path d="M790.255 226.051C788.263 225.098 786.583 223.584 785.215 221.503C783.846 219.426 782.905 216.933 782.391 214.024C781.693 210.079 781.77 206.266 782.62 202.581C783.469 198.901 784.989 195.821 787.18 193.349C789.369 190.873 792.007 189.365 795.092 188.822C798.351 188.248 801.187 188.923 803.602 190.853C806.017 192.785 807.74 195.657 808.773 199.472L803.833 200.342C803.114 197.901 802.019 196.104 800.547 194.953C799.074 193.803 797.35 193.403 795.375 193.751C793.398 194.099 791.692 195.213 790.254 197.088C788.817 198.966 787.829 201.316 787.292 204.142C786.754 206.965 786.756 209.902 787.294 212.946C787.857 216.13 788.959 218.525 790.601 220.127C792.243 221.727 794.19 222.332 796.444 221.934C798.42 221.586 800.062 220.566 801.372 218.87C802.681 217.177 803.611 214.959 804.164 212.221L809.052 211.359C808.387 215.689 807.008 219.208 804.912 221.914C802.817 224.622 800.106 226.266 796.778 226.853C794.42 227.269 792.246 227.001 790.255 226.051Z" fill="#164900"/>
<path d="M819.324 222.451L814.384 223.321L814.405 185.846L837.805 181.721L837.784 219.197L832.844 220.067L832.826 187.523L819.306 189.907L819.324 222.451Z" fill="#164900"/>
<path d="M851.458 215.263C849.467 214.309 847.786 212.795 846.419 210.715C845.05 208.637 844.109 206.144 843.594 203.236C842.896 199.291 842.973 195.478 843.823 191.795C844.673 188.113 846.193 185.033 848.383 182.56C850.573 180.088 853.21 178.579 856.296 178.034C858.618 177.626 860.784 177.893 862.793 178.841C864.802 179.792 866.49 181.303 867.859 183.381C869.227 185.464 870.169 187.954 870.683 190.861C871.381 194.808 871.296 198.623 870.428 202.311C869.56 205.996 868.032 209.074 865.842 211.549C863.652 214.021 861.032 215.528 857.981 216.065C855.624 216.481 853.45 216.213 851.458 215.263ZM862.768 207.809C864.206 205.931 865.191 203.571 865.725 200.729C866.259 197.886 866.257 194.943 865.718 191.897C865.161 188.749 864.062 186.373 862.42 184.768C860.778 183.168 858.831 182.565 856.578 182.963C854.602 183.311 852.895 184.425 851.457 186.3C850.02 188.178 849.032 190.528 848.496 193.354C847.958 196.179 847.959 199.114 848.498 202.16C849.061 205.344 850.163 207.736 851.805 209.339C853.446 210.941 855.393 211.544 857.647 211.146C859.623 210.798 861.33 209.687 862.768 207.809Z" fill="#164900"/>
<path d="M876.472 212.377L876.493 174.902L887.621 172.941C889.389 172.629 891.052 172.785 892.609 173.4C894.167 174.019 895.478 175.018 896.544 176.4C897.611 177.784 898.313 179.426 898.649 181.327C899.065 183.682 898.921 185.947 898.214 188.123C897.509 190.3 896.326 192.141 894.661 193.647C892.997 195.153 891.003 196.112 888.682 196.522L881.401 197.805L881.412 211.507L876.472 212.377ZM888.513 191.627C889.761 191.406 890.824 190.853 891.704 189.967C892.584 189.079 893.212 187.988 893.592 186.69C893.969 185.391 894.034 184.035 893.782 182.615C893.489 180.953 892.798 179.675 891.71 178.776C890.621 177.883 889.367 177.558 887.945 177.808L881.446 178.956L881.441 192.873L888.513 191.627Z" fill="#164900"/>
<path d="M914.744 205.633L909.804 206.503L909.828 173.899L900.779 175.494L900.777 170.621L923.812 166.562L923.816 171.432L914.768 173.026L914.744 205.633Z" fill="#164900"/>
<path d="M950 199.418L945.008 200.298L942.659 191.559L930.021 193.787L927.64 203.36L922.232 204.313L932.29 165.069L939.985 163.711L950 199.418ZM935.963 169.775L931.234 188.809L941.424 187.012L936.691 169.645L935.963 169.775Z" fill="#164900"/>
<path d="M506.471 332.533L502.934 333.157L502.915 307.929L506.45 307.305L506.475 318.871L515.098 305.781L519.545 304.998L510.062 319.357L519.846 330.175L515.749 330.897L506.45 320.57L506.471 332.533Z" fill="#164900"/>
<path d="M540.853 326.473L537.211 327.115L535.291 321.362L525.138 323.151L523.242 329.577L519.32 330.269L527.422 303.61L532.745 302.671L540.853 326.473ZM529.905 307.029L526.174 319.617L534.261 318.191L530.5 306.924L529.905 307.029Z" fill="#164900"/>
<path d="M546.735 325.436L543.198 326.059L543.179 300.832L546.714 300.209L546.73 310.911L557.793 308.962L557.779 298.259L561.314 297.635L561.335 322.863L557.798 323.487L557.781 312.567L546.717 314.518L546.735 325.436Z" fill="#164900"/>
<path d="M567.522 326.82L563.986 327.443L563.985 318.864L566.191 318.475L572.483 295.667L577.806 294.729L584.153 315.31L586.358 314.92L586.359 323.498L582.822 324.121L582.833 319.074L567.532 321.771L567.522 326.82ZM575.07 299.067L570.042 317.795L580.546 315.945L575.49 298.995L575.07 299.067Z" fill="#164900"/>
<path d="M593.896 317.124L588.748 318.031L588.729 292.803L592.264 292.18L592.26 311.754L592.821 311.655L601.754 290.508L606.899 289.601L606.92 314.828L603.383 315.451L603.354 295.885L602.828 295.977L593.896 317.124Z" fill="#164900"/>
<path d="M613.107 318.784L609.571 319.408L609.569 310.83L611.775 310.44L618.068 287.633L623.39 286.695L629.738 307.274L631.942 306.885L631.944 315.464L628.407 316.087L628.418 311.04L613.116 313.736L613.107 318.784ZM620.655 291.033L615.627 309.761L626.131 307.911L621.075 290.959L620.655 291.033Z" fill="#164900"/>
<path d="M653.415 306.633L649.775 307.274L647.855 301.522L637.701 303.311L635.804 309.736L631.883 310.428L639.986 283.769L645.307 282.831L653.415 306.633ZM642.468 287.188L638.737 299.776L646.824 298.351L643.062 287.085L642.468 287.188Z" fill="#164900"/>
<path d="M662.519 305.028L658.982 305.651L658.96 283.885L651.922 285.126L651.925 281.665L669.536 278.561L669.534 282.022L662.497 283.262L662.519 305.028Z" fill="#164900"/>
<path d="M452.437 290.608C452.437 290.593 452.438 290.579 452.438 290.565H452.436C452.389 264.464 431.108 243.244 404.953 243.244C378.798 243.244 357.516 264.464 357.47 290.565H357.468C357.468 290.579 357.469 290.593 357.469 290.608C357.469 290.622 357.468 290.636 357.468 290.65H357.47C357.516 316.751 378.798 337.972 404.953 337.972C431.108 337.972 452.389 316.751 452.436 290.65H452.438C452.438 290.636 452.437 290.622 452.437 290.608ZM404.953 332.347C381.89 332.347 363.126 313.627 363.103 290.608C363.126 267.589 381.89 248.868 404.953 248.868C428.015 248.868 446.779 267.589 446.803 290.608C446.779 313.627 428.015 332.347 404.953 332.347Z" fill="#164900"/>
<path d="M440.856 290.608C440.856 290.593 440.857 290.579 440.857 290.565H440.855C440.808 270.839 424.721 254.805 404.953 254.805C385.184 254.805 369.096 270.839 369.05 290.565H369.048C369.048 290.579 369.049 290.593 369.049 290.608C369.049 290.622 369.048 290.636 369.048 290.65H369.05C369.096 310.376 385.183 326.41 404.953 326.41C424.722 326.41 440.808 310.376 440.855 290.65H440.857C440.857 290.636 440.856 290.622 440.856 290.608ZM404.953 320.786C388.275 320.786 374.706 307.252 374.683 290.608C374.706 273.964 388.275 260.43 404.953 260.43C421.629 260.43 435.198 273.964 435.222 290.608C435.198 307.252 421.629 320.786 404.953 320.786Z" fill="#164900"/>
<path d="M429.275 290.608C429.275 290.593 429.277 290.579 429.277 290.565H429.274C429.228 277.214 418.337 266.367 404.953 266.367C391.569 266.367 380.678 277.214 380.631 290.565H380.629C380.629 290.579 380.63 290.593 380.63 290.608C380.63 290.622 380.629 290.636 380.629 290.65H380.631C380.678 304.001 391.569 314.849 404.953 314.849C418.337 314.849 429.228 304.001 429.274 290.65H429.277C429.277 290.636 429.275 290.622 429.275 290.608ZM404.953 309.224C394.662 309.224 386.287 300.876 386.264 290.608C386.287 280.339 394.662 271.991 404.953 271.991C415.244 271.991 423.618 280.339 423.641 290.608C423.618 300.876 415.244 309.224 404.953 309.224Z" fill="#164900"/>
<path d="M464.016 290.565C463.969 258.089 437.493 231.682 404.953 231.682C372.412 231.682 345.935 258.089 345.889 290.565H345.887C345.887 290.579 345.888 290.593 345.888 290.608C345.888 290.622 345.887 290.636 345.887 290.65H345.889C345.935 323.126 372.412 349.533 404.953 349.533C437.493 349.533 463.969 323.126 464.016 290.65H464.018C464.018 290.636 464.017 290.622 464.017 290.608C464.017 290.593 464.018 290.579 464.018 290.565H464.016ZM404.953 343.909C375.504 343.909 351.545 320.002 351.522 290.608C351.545 261.214 375.504 237.307 404.953 237.307C434.401 237.307 458.36 261.214 458.383 290.608C458.36 320.002 434.4 343.909 404.953 343.909Z" fill="#164900"/>
<path d="M445.267 232.889C457.129 221.772 463.881 206.312 463.905 189.986H463.907C463.907 189.971 463.906 189.957 463.906 189.942C463.906 189.928 463.907 189.915 463.907 189.901H463.905C463.859 157.425 437.382 131.018 404.841 131.018C386.596 131.018 370.26 139.322 359.417 152.341C362.674 132.411 356.576 111.611 342.414 96.6225L341.441 97.5384L342.418 96.5632C317.2 71.3866 276.419 71.0205 250.725 95.4272L250.646 95.3528L231.92 115.056L236.008 118.928L253.496 100.526L253.511 100.541C276.895 77.1954 314.923 77.1686 338.344 100.455L338.316 100.482C354.15 117.241 358.966 141.949 350.583 163.427C347.344 171.729 342.383 179.063 335.82 185.245L305.712 214.11L297.58 215.546L331.831 180.838L331.83 180.837C353.386 160.462 354.423 126.43 334.19 104.778L334.229 104.738C313.469 84.0128 279.908 83.7004 258.741 103.766L258.616 103.648L239.89 123.351L243.978 127.223L261.632 108.647L261.701 108.716C280.491 89.9585 310.986 89.859 329.91 108.397L329.892 108.415C348.23 127.824 347.332 158.51 327.891 176.818L329.824 178.864L327.817 176.89L236.412 269.518L239.659 272.713L239.795 273.479L240.34 273.383L240.425 273.466L240.542 273.347L344.06 255.124C337.939 265.538 334.417 277.648 334.402 290.562V290.653C334.447 329.443 366.097 361 404.953 361C443.809 361 475.458 329.443 475.504 290.65V290.562C475.476 266.722 463.507 245.618 445.267 232.889ZM404.841 136.643C434.289 136.643 458.248 160.549 458.272 189.942C458.26 205.202 451.735 219.619 440.34 229.743C438.503 228.675 436.613 227.688 434.675 226.786C445.778 217.835 452.299 204.38 452.325 189.986H452.326C452.326 189.975 452.326 189.965 452.326 189.954C452.326 189.936 452.326 189.919 452.326 189.901H452.324C452.278 163.8 430.996 142.579 404.841 142.579C378.686 142.579 357.405 163.8 357.358 189.901H357.356C357.356 189.919 357.357 189.936 357.357 189.954C357.357 189.965 357.356 189.975 357.356 189.986H357.357C357.383 204.422 363.934 217.902 375.089 226.851C373.153 227.758 371.266 228.75 369.431 229.822C357.98 219.693 351.422 205.248 351.41 189.942C351.434 160.548 375.393 136.643 404.841 136.643ZM404.841 220.121C388.164 220.121 374.595 206.588 374.572 189.944C374.595 173.299 388.164 159.766 404.841 159.766C421.519 159.766 435.088 173.299 435.111 189.944C435.088 206.588 421.519 220.121 404.841 220.121ZM440.744 189.986H440.746C440.746 189.972 440.745 189.958 440.745 189.944C440.745 189.929 440.746 189.915 440.746 189.901H440.744C440.697 170.175 424.611 154.141 404.841 154.141C385.072 154.141 368.985 170.175 368.939 189.901H368.936C368.936 189.915 368.937 189.929 368.937 189.944C368.937 189.958 368.936 189.972 368.936 189.986H368.939C368.972 204.028 377.135 216.193 388.967 222.042C386.307 222.66 383.705 223.431 381.168 224.342C369.789 216.533 363.004 203.735 362.991 189.939C363.017 166.922 381.781 148.204 404.841 148.204C427.902 148.204 446.665 166.922 446.691 189.939C446.678 203.698 439.922 216.477 428.591 224.29C426.051 223.385 423.447 222.618 420.785 222.006C432.579 216.144 440.711 204 440.744 189.986ZM360.82 235.749L260.101 253.527L266.01 247.539L266.01 247.54L362.042 230.539C362.837 231.374 363.661 232.186 364.51 232.977C363.248 233.862 362.019 234.787 360.82 235.749ZM278.381 235.002L354.961 221.46C355.854 222.866 356.795 224.245 357.809 225.576L272.839 240.619L278.381 235.002ZM339.703 189.32C342.114 187.049 344.31 184.621 346.323 182.068C345.976 184.633 345.781 187.244 345.777 189.901H345.775C345.775 189.915 345.776 189.928 345.776 189.942C345.776 189.957 345.775 189.971 345.775 189.986H345.777C345.786 195.685 346.626 201.272 348.204 206.61L315.681 212.351L339.703 189.32ZM350.069 211.993C350.657 213.446 351.319 214.867 352.021 216.268L285.21 228.082L290.754 222.463L350.069 211.993ZM247.363 266.435L253.275 260.444L353.241 242.799C351.51 244.662 349.877 246.616 348.353 248.657L247.363 266.435ZM469.87 290.647C469.827 326.338 440.705 355.375 404.953 355.375C369.201 355.375 340.078 326.338 340.036 290.569C340.078 254.877 369.2 225.84 404.953 225.84C440.706 225.84 469.827 254.877 469.87 290.566V290.647Z" fill="#164900"/>
<path d="M178.318 189.986C178.365 196.962 184.059 202.623 191.057 202.623C198.055 202.623 203.749 196.962 203.796 189.986H203.8C203.8 189.972 203.798 189.958 203.798 189.944C203.798 189.929 203.8 189.915 203.8 189.901H203.796C203.749 182.925 198.055 177.264 191.057 177.264C184.059 177.264 178.365 182.925 178.318 189.901H178.314C178.314 189.915 178.316 189.929 178.316 189.944C178.316 189.958 178.314 189.972 178.314 189.986H178.318ZM191.057 182.889C194.963 182.889 198.14 186.05 198.164 189.944C198.14 193.837 194.963 196.998 191.057 196.998C187.152 196.998 183.973 193.837 183.95 189.944C183.973 186.05 187.152 182.889 191.057 182.889Z" fill="#164900"/>
<path d="M191.057 248.869C207.344 248.869 222.112 242.254 232.808 231.574L232.859 231.624L307.99 155.608L307.988 155.605C315.36 148.59 315.958 137.104 309.571 129.356L309.663 129.264C309.426 129.027 309.171 128.821 308.925 128.599C308.853 128.519 308.791 128.434 308.717 128.355L308.686 128.384C301.182 121.841 289.805 122.049 282.554 129.019L282.431 128.905L265.499 147.182L269.634 151.001L286.173 133.149L286.266 133.242C291.363 128.154 299.495 127.922 304.883 132.523C309.788 138.032 309.458 146.496 304.052 151.587L305.985 153.632L303.98 151.657L246.727 209.584C248.909 203.45 250.111 196.856 250.12 189.986H250.123C250.123 189.972 250.121 189.958 250.121 189.944C250.121 189.929 250.123 189.915 250.123 189.901H250.12C250.074 157.425 223.598 131.018 191.057 131.018C173.574 131.018 157.847 138.647 147.023 150.739C149.706 131.303 143.566 111.211 129.782 96.6225L128.813 97.5351L129.786 96.5636C117.381 84.1781 100.886 77.3571 83.342 77.3571C66.3501 77.3571 50.354 83.7717 38.0927 95.426L38.0153 95.3528L19.2894 115.056L23.3767 118.928L40.8653 100.526L40.8803 100.541C52.2224 89.2179 67.3019 82.9819 83.342 82.9819C99.3404 82.9819 114.381 89.1879 125.713 100.455L125.684 100.482C141.519 117.242 146.335 141.949 137.953 163.427C134.712 171.73 129.75 179.065 123.187 185.245L93.0991 214.093L84.9667 215.528L119.2 180.838L119.199 180.837C140.754 160.461 141.792 126.429 121.558 104.778L121.598 104.738C100.839 84.0143 67.2778 83.6991 46.1102 103.766L45.9854 103.648L27.2588 123.351L31.346 127.223L49.0004 108.648L49.0689 108.716C67.8571 89.9591 98.3528 89.8579 117.279 108.398L117.261 108.415C135.598 127.824 134.701 158.509 115.26 176.818L117.193 178.864L115.186 176.89L23.7799 269.518L26.9277 272.615L27.0804 273.479L27.6962 273.37L27.7933 273.466L27.9277 273.33L176.802 247.122C181.37 248.257 186.143 248.869 191.057 248.869ZM191.057 136.643C220.505 136.643 244.464 160.549 244.487 189.944C244.464 219.338 220.505 243.244 191.057 243.244C161.61 243.244 137.65 219.338 137.626 189.944C137.65 160.549 161.609 136.643 191.057 136.643ZM65.7674 234.984L141.307 221.626C142.213 223.037 143.174 224.409 144.194 225.736L60.2245 240.601L65.7674 234.984ZM53.3939 247.523L148.465 230.692C149.883 232.168 151.375 233.573 152.94 234.896L47.4865 253.509L53.3939 247.523ZM127.072 189.32C128.943 187.557 130.69 185.702 132.322 183.768C132.109 185.784 131.996 187.83 131.993 189.901H131.991C131.991 189.915 131.992 189.929 131.992 189.944C131.992 189.958 131.991 189.972 131.991 189.986H131.993C132.002 195.824 132.874 201.462 134.472 206.79L103.069 212.333L127.072 189.32ZM136.377 212.166C136.973 213.621 137.629 215.045 138.336 216.439L72.5959 228.064L78.1406 222.445L136.377 212.166ZM34.7486 266.418L40.6604 260.427L159.183 239.507C161.377 240.917 163.666 242.189 166.046 243.305L34.7486 266.418Z" fill="#164900"/>
<path d="M143.573 189.944C143.573 189.958 143.572 189.972 143.572 189.986H143.574C143.621 216.087 164.902 237.308 191.057 237.308C217.212 237.308 238.494 216.087 238.54 189.986H238.542C238.542 189.972 238.541 189.958 238.541 189.944C238.541 189.929 238.542 189.915 238.542 189.901H238.54C238.494 163.8 217.212 142.579 191.057 142.579C164.902 142.579 143.621 163.8 143.574 189.901H143.572C143.572 189.915 143.573 189.929 143.573 189.944ZM191.057 148.204C214.119 148.204 232.884 166.924 232.907 189.944C232.884 212.963 214.119 231.683 191.057 231.683C167.995 231.683 149.231 212.963 149.207 189.944C149.231 166.924 167.995 148.204 191.057 148.204Z" fill="#164900"/>
<path d="M155.153 189.944C155.153 189.958 155.152 189.972 155.152 189.986H155.155C155.201 209.712 171.288 225.746 191.057 225.746C210.827 225.746 226.913 209.712 226.959 189.986H226.961C226.961 189.972 226.96 189.958 226.96 189.944C226.96 189.929 226.961 189.915 226.961 189.901H226.959C226.913 170.175 210.826 154.141 191.057 154.141C171.289 154.141 155.201 170.175 155.155 189.901H155.152C155.152 189.915 155.153 189.929 155.153 189.944ZM191.057 159.766C207.734 159.766 221.303 173.299 221.326 189.944C221.303 206.588 207.734 220.121 191.057 220.121C174.38 220.121 160.811 206.588 160.788 189.944C160.811 173.299 174.38 159.766 191.057 159.766Z" fill="#164900"/>
<path d="M166.735 189.944C166.735 189.958 166.734 189.972 166.734 189.986H166.736C166.782 203.337 177.673 214.185 191.057 214.185C204.441 214.185 215.332 203.337 215.379 189.986H215.381C215.381 189.972 215.38 189.958 215.38 189.944C215.38 189.929 215.381 189.915 215.381 189.901H215.379C215.332 176.55 204.441 165.702 191.057 165.702C177.674 165.702 166.782 176.55 166.736 189.901H166.734C166.734 189.915 166.735 189.929 166.735 189.944ZM191.057 171.327C201.348 171.327 209.723 179.675 209.746 189.944C209.723 200.212 201.348 208.56 191.057 208.56C180.766 208.56 172.392 200.212 172.369 189.944C172.392 179.675 180.766 171.327 191.057 171.327Z" fill="#164900"/>
<path d="M323.881 172.429C332.098 164.655 336.807 154.158 337.137 142.857C337.462 131.735 333.503 121.149 325.991 112.963L326.04 112.914C318.009 104.896 307.33 100.48 295.973 100.48C284.615 100.48 273.936 104.896 265.906 112.914L266.155 113.163L249.619 130.942L253.748 134.769L271.29 115.907L271.104 115.735C277.916 109.514 286.681 106.105 295.973 106.105C305.558 106.105 314.578 109.739 321.476 116.339L321.467 116.348C328.227 123.504 331.793 132.86 331.505 142.692C331.217 152.525 327.112 161.658 319.944 168.407L321.877 170.453L319.873 168.477L227.55 261.828L231.559 265.78L323.881 172.429Z" fill="#164900"/>
<path d="M316.246 163.71C328.045 152.21 328.694 133.432 317.793 121.148L317.851 121.089C312.007 115.255 304.238 112.042 295.973 112.042C287.949 112.042 280.398 115.077 274.617 120.592L274.497 120.48L256.649 139.48L260.758 143.328L277.993 124.981L278.078 125.066C282.857 120.294 289.213 117.666 295.973 117.666C302.352 117.666 308.37 120.009 313.044 124.283C322.617 134.418 322.148 150.438 311.999 159.997L312.3 160.316L220.528 253.282L224.541 257.23L316.558 164.017L316.246 163.71Z" fill="#164900"/>
<path d="M111.25 172.429C119.468 164.655 124.176 154.158 124.506 142.857C124.831 131.735 120.872 121.149 113.361 112.963L113.409 112.914C105.378 104.896 94.6997 100.48 83.3419 100.48C71.9841 100.48 61.3054 104.896 53.2748 112.914L53.5234 113.162L36.9879 130.942L41.116 134.769L58.6582 115.907L58.4732 115.736C65.285 109.514 74.05 106.105 83.3419 106.105C92.9273 106.105 101.948 109.739 108.845 116.339L108.836 116.348C115.597 123.504 119.162 132.86 118.874 142.692C118.587 152.525 114.481 161.658 107.314 168.407L109.246 170.453L107.242 168.477L14.9192 261.828L18.9278 265.78L111.25 172.429Z" fill="#164900"/>
<path d="M103.615 163.711C109.386 158.088 112.694 150.587 112.93 142.519C113.162 134.598 110.405 127.05 105.162 121.147L105.22 121.089C99.3765 115.255 91.6068 112.042 83.3419 112.042C75.3186 112.042 67.7674 115.077 61.9861 120.592L61.8666 120.48L44.018 139.48L48.1272 143.328L65.3618 124.981L65.4469 125.066C70.2266 120.294 76.5823 117.666 83.3419 117.666C89.7212 117.666 95.739 120.009 100.414 124.283C105.05 129.193 107.496 135.611 107.299 142.355C107.101 149.101 104.284 155.366 99.367 159.997L99.6685 160.316L7.89697 253.282L11.9103 257.23L103.926 164.017L103.615 163.711Z" fill="#164900"/>
<path d="M95.3585 155.607C99.0751 152.072 101.205 147.309 101.355 142.182C101.493 137.462 99.9342 132.953 96.9523 129.343L97.0319 129.264C96.7654 128.998 96.4909 128.744 96.2121 128.495C96.169 128.449 96.129 128.4 96.0855 128.355L96.068 128.371C92.541 125.29 88.0722 123.603 83.342 123.603C78.2923 123.603 73.542 125.524 69.9168 129.013L69.7999 128.905L52.8677 147.182L57.0037 151.001L73.5424 133.148L73.6356 133.241C76.2278 130.653 79.6753 129.228 83.342 129.228C86.642 129.228 89.7588 130.392 92.2408 132.511C94.5846 135.134 95.8261 138.49 95.7232 142.018C95.6163 145.677 94.0883 149.075 91.4213 151.587L93.3541 153.632L91.349 151.657L0 244.081L4.01021 248.032L95.3592 155.608L95.3585 155.607Z" fill="#164900"/>
<path d="M429.165 189.986C429.165 189.972 429.164 189.958 429.164 189.944C429.164 189.929 429.165 189.915 429.165 189.901H429.163C429.116 176.55 418.225 165.702 404.841 165.702C391.457 165.702 380.566 176.55 380.519 189.901H380.517C380.517 189.915 380.518 189.929 380.518 189.944C380.518 189.958 380.517 189.972 380.517 189.986H380.519C380.566 203.337 391.457 214.185 404.841 214.185C418.225 214.185 429.116 203.337 429.163 189.986H429.165ZM404.841 208.56C394.55 208.56 386.176 200.212 386.152 189.944C386.176 179.675 394.55 171.327 404.841 171.327C415.132 171.327 423.506 179.675 423.53 189.944C423.506 200.212 415.132 208.56 404.841 208.56Z" fill="#164900"/>
<path d="M417.58 189.901C417.534 182.925 411.839 177.264 404.841 177.264C397.843 177.264 392.149 182.925 392.102 189.901H392.098C392.098 189.915 392.1 189.929 392.1 189.944C392.1 189.958 392.098 189.972 392.098 189.986H392.102C392.149 196.962 397.843 202.623 404.841 202.623C411.839 202.623 417.534 196.962 417.58 189.986H417.585C417.585 189.972 417.583 189.958 417.583 189.944C417.583 189.929 417.585 189.915 417.585 189.901H417.58ZM404.841 196.998C400.936 196.998 397.757 193.837 397.734 189.944C397.757 186.05 400.936 182.889 404.841 182.889C408.746 182.889 411.925 186.05 411.948 189.944C411.925 193.837 408.746 196.998 404.841 196.998Z" fill="#164900"/>
</g>
<defs>
<clipPath id="clip0_84_7">
<rect width="950" height="361" fill="white"/>
</clipPath>
</defs>
</svg>
