<svg width="1069" height="405" viewBox="0 0 1069 405" fill="none" xmlns="http://www.w3.org/2000/svg">
<g clip-path="url(#clip0_1_1050)">
<path d="M585.405 156.023L566.621 159.33L566.668 76.3479L622.561 66.5065L622.514 149.487L603.728 152.796L603.697 89.5039L585.374 92.7307L585.405 156.023Z" fill="white"/>
<path d="M648.672 144.881L628.504 148.432L647.106 62.1835L675.917 57.1094L694.423 136.825L675.638 140.131L663.053 79.7618L661.208 80.0862L648.672 144.881Z" fill="white"/>
<path d="M713.368 130.05C708.678 127.954 704.714 124.581 701.476 119.937C698.237 115.291 696.042 109.711 694.889 103.198C693.315 94.3091 693.519 85.8356 695.5 77.783C697.479 69.7304 700.948 63.0136 705.898 57.6384C710.848 52.2618 716.742 48.9721 723.58 47.7678C728.957 46.8208 733.987 47.3791 738.671 49.4368C743.352 51.4974 747.313 54.85 750.552 59.4945C753.79 64.1389 755.986 69.7217 757.14 76.2339C758.713 85.1238 758.511 93.6134 756.537 101.704C754.564 109.797 751.1 116.53 746.151 121.907C741.2 127.284 735.306 130.573 728.468 131.778C723.089 132.725 718.055 132.149 713.368 130.05ZM734.551 107.059C736.693 103.955 738.141 100.047 738.891 95.3292C739.641 90.616 739.569 85.7274 738.674 80.6694C737.82 75.8422 736.186 72.2178 733.777 69.7977C731.369 67.3776 728.512 66.4569 725.209 67.0385C722.213 67.5675 719.642 69.3827 717.498 72.4868C715.354 75.5909 713.905 79.5017 713.157 84.2149C712.407 88.931 712.48 93.8181 713.375 98.8747C714.216 103.627 715.844 107.231 718.261 109.691C720.676 112.15 723.534 113.089 726.84 112.507C729.836 111.978 732.406 110.163 734.551 107.059Z" fill="white"/>
<path d="M767.142 124.019L767.189 41.0364L793.927 36.3276C801.071 35.0708 807.058 35.8936 811.891 38.7945C816.722 41.697 819.687 46.2537 820.786 52.4591C821.586 56.9837 821.188 61.3388 819.594 65.5302C817.998 69.7231 815.468 72.9953 812.001 75.3424L811.988 75.9387C814.432 76.7731 816.603 78.4056 818.501 80.8374C820.396 83.2693 821.649 86.2097 822.26 89.6572C823.019 93.9495 822.665 98.1029 821.197 102.113C819.727 106.126 817.419 109.534 814.272 112.34C811.123 115.146 807.477 116.915 803.327 117.645L767.142 124.019ZM796.167 101.365C798.856 100.891 800.826 99.7135 802.079 97.8341C803.33 95.9546 803.739 93.7888 803.305 91.3365C802.952 89.3431 802.117 87.8699 800.8 86.9171C799.483 85.9642 797.862 85.6558 795.943 85.9934L785.917 87.7589L785.911 103.171L796.167 101.365ZM795.528 68.8799C798.063 68.4327 799.985 67.3249 801.297 65.5522C802.607 63.7823 803.026 61.5551 802.551 58.8719C802.198 56.8785 801.361 55.4053 800.045 54.4525C798.727 53.4996 797.108 53.1927 795.187 53.5317L785.968 55.1539L785.964 70.5634L795.528 68.8799Z" fill="white"/>
<path d="M843.052 127.244L824.153 130.573L824.068 93.8429L831.1 92.605L844.978 27.3368L873.559 22.3051L887.453 82.6818L894.367 81.463L894.452 118.193L875.667 121.501L875.699 104.902L842.97 110.666L843.052 127.244ZM858.848 45.2834L850.806 89.1356L868.899 85.9496L860.809 44.9385L858.848 45.2834Z" fill="white"/>
<path d="M920.067 97.0888L899.899 100.64L899.946 17.6577L918.385 14.4118L918.396 57.4368L920.239 57.1124L937.285 11.0826L957.454 7.53131L957.406 90.5123L938.967 93.7596L938.956 50.7346L937.227 51.0386L920.067 97.0888Z" fill="white"/>
<path d="M970.197 88.2616L970.245 5.27775L996.981 0.570441C1004.13 -0.68786 1010.11 0.136392 1014.95 3.0359C1019.78 5.94126 1022.74 10.4951 1023.84 16.7033C1024.64 21.2251 1024.24 25.5802 1022.65 29.7731C1021.05 33.966 1018.52 37.2367 1015.06 39.5852L1015.04 40.18C1017.49 41.016 1019.66 42.647 1021.55 45.0788C1023.45 47.5121 1024.7 50.4511 1025.31 53.9001C1026.07 58.1924 1025.72 62.3443 1024.25 66.3546C1022.78 70.3677 1020.47 73.7758 1017.33 76.5818C1014.18 79.3892 1010.53 81.159 1006.38 81.8883L970.197 88.2616ZM999.223 65.6063C1001.91 65.1327 1003.88 63.9563 1005.13 62.0754C1006.38 60.196 1006.79 58.0301 1006.36 55.5778C1006.01 53.5859 1005.17 52.1113 1003.85 51.1584C1002.54 50.2056 1000.92 49.8987 998.997 50.2362L988.971 52.0017L988.965 67.4126L999.223 65.6063ZM998.583 33.1212C1001.12 32.6755 1003.04 31.5663 1004.35 29.795C1005.66 28.0237 1006.08 25.7965 1005.61 23.1133C1005.25 21.1228 1004.42 19.6482 1003.1 18.6968C1001.78 17.741 1000.16 17.4341 998.243 17.7731L989.022 19.3953L989.018 34.8063L998.583 33.1212Z" fill="white"/>
<path d="M589.811 238.916L568.255 242.71L568.28 200.533L589.835 196.739L589.839 202.219L573.79 205.046L573.814 217.816L588.985 215.144L588.921 220.578L573.808 223.238L573.816 236.251L589.866 233.424L589.811 238.916Z" fill="white"/>
<path d="M596.371 237.762L596.396 195.581L608.52 193.448C610.668 193.071 612.592 193.191 614.294 193.816C615.994 194.439 617.39 195.441 618.479 196.815C619.568 198.189 620.274 199.793 620.599 201.623C621.005 203.92 620.826 206.154 620.062 208.314C619.297 210.477 618.076 212.169 616.399 213.388L616.392 213.689C617.518 214.136 618.535 214.992 619.443 216.255C620.352 217.524 620.948 218.953 621.231 220.552C621.623 222.77 621.452 224.93 620.716 227.029C619.979 229.125 618.804 230.899 617.188 232.349C615.572 233.798 613.69 234.71 611.542 235.087L596.371 237.762ZM609.762 211.725C611.637 211.394 613.096 210.427 614.14 208.816C615.184 207.206 615.527 205.388 615.168 203.362C614.879 201.728 614.195 200.483 613.118 199.627C612.04 198.773 610.759 198.478 609.276 198.738L601.895 200.039L601.972 213.095L609.762 211.725ZM610.435 229.861C611.568 229.662 612.578 229.163 613.463 228.365C614.348 227.567 614.994 226.558 615.404 225.342C615.813 224.126 615.897 222.835 615.655 221.472C615.386 219.953 614.731 218.751 613.69 217.871C612.647 216.992 611.462 216.667 610.135 216.901L601.935 218.345L601.942 231.358L610.435 229.861Z" fill="white"/>
<path d="M628.119 232.17L628.143 189.993L640.679 187.783C642.671 187.432 644.543 187.608 646.297 188.303C648.051 188.996 649.528 190.122 650.73 191.676C651.931 193.234 652.722 195.082 653.101 197.224C653.57 199.875 653.407 202.424 652.612 204.87C651.818 207.323 650.483 209.395 648.609 211.09C646.734 212.786 644.489 213.864 641.873 214.326L633.672 215.77L633.683 231.191L628.119 232.17ZM641.683 208.816C643.089 208.568 644.287 207.945 645.279 206.946C646.269 205.949 646.977 204.721 647.405 203.26C647.829 201.798 647.901 200.27 647.619 198.674C647.288 196.803 646.509 195.365 645.284 194.354C644.058 193.345 642.645 192.98 641.044 193.264L633.722 194.553L633.716 210.219L641.683 208.816Z" fill="white"/>
<path d="M666.953 223.615C664.709 222.542 662.816 220.838 661.275 218.5C659.733 216.162 658.673 213.353 658.094 210.082C657.308 205.642 657.394 201.351 658.351 197.204C659.309 193.059 661.021 189.595 663.488 186.81C665.955 184.027 668.926 182.329 672.402 181.715C675.018 181.256 677.457 181.56 679.72 182.627C681.983 183.694 683.885 185.398 685.427 187.736C686.968 190.078 688.029 192.881 688.608 196.154C689.394 200.594 689.298 204.888 688.321 209.039C687.343 213.186 685.622 216.653 683.155 219.435C680.689 222.218 677.736 223.913 674.3 224.518C671.644 224.986 669.196 224.685 666.953 223.615ZM679.692 215.226C681.311 213.113 682.421 210.459 683.023 207.258C683.625 204.061 683.623 200.746 683.015 197.318C682.388 193.775 681.15 191.101 679.3 189.297C677.451 187.494 675.257 186.819 672.72 187.263C670.493 187.658 668.571 188.909 666.951 191.019C665.332 193.135 664.219 195.78 663.615 198.957C663.009 202.138 663.011 205.443 663.617 208.869C664.252 212.452 665.493 215.147 667.342 216.951C669.191 218.751 671.385 219.429 673.924 218.982C676.15 218.591 678.073 217.34 679.692 215.226Z" fill="white"/>
<path d="M700.694 219.388L695.129 220.371L695.154 178.19L721.513 173.549L721.488 215.726L715.924 216.708L715.903 180.081L700.674 182.762L700.694 219.388Z" fill="white"/>
<path d="M750.951 210.538L729.395 214.335L729.42 172.157L750.976 168.361L750.98 173.844L734.93 176.67L734.955 189.438L750.126 186.766L750.061 192.2L734.948 194.862L734.956 207.875L751.006 205.049L750.951 210.538Z" fill="white"/>
<path d="M765.712 207.939L757.512 209.383L757.536 167.206L763.101 166.227L763.054 199.068L763.875 198.925L775.929 163.967L784.129 162.524L784.105 204.701L778.541 205.68L778.527 172.847L777.708 172.99L765.712 207.939ZM766.003 158.905C764.525 157.721 763.664 155.985 763.42 153.696L767.813 152.925C767.903 154.114 768.24 154.997 768.827 155.579C769.413 156.157 770.134 156.371 770.994 156.222C771.853 156.07 772.519 155.62 772.991 154.874C773.463 154.129 773.728 153.126 773.788 151.873L778.122 151.11C778.106 153.521 777.517 155.535 776.352 157.145C775.188 158.756 773.589 159.741 771.56 160.098C769.333 160.489 767.481 160.092 766.003 158.905Z" fill="white"/>
<path d="M799.508 200.273C797.265 199.2 795.372 197.496 793.83 195.155C792.289 192.816 791.229 190.01 790.649 186.74C789.864 182.3 789.95 178.006 790.907 173.861C791.865 169.717 793.577 166.25 796.044 163.468C798.511 160.682 801.481 158.984 804.957 158.373C808.628 157.727 811.823 158.49 814.543 160.659C817.263 162.833 819.205 166.066 820.367 170.36L814.803 171.339C813.993 168.591 812.76 166.569 811.102 165.274C809.443 163.979 807.501 163.529 805.275 163.921C803.049 164.312 801.127 165.566 799.507 167.677C797.888 169.793 796.775 172.435 796.171 175.615C795.565 178.795 795.566 182.098 796.173 185.524C796.807 189.107 798.048 191.802 799.899 193.606C801.748 195.409 803.941 196.087 806.48 195.64C808.706 195.248 810.557 194.1 812.031 192.191C813.505 190.285 814.554 187.792 815.176 184.708L820.682 183.738C819.934 188.613 818.38 192.571 816.019 195.617C813.66 198.665 810.605 200.515 806.856 201.176C804.2 201.644 801.751 201.342 799.508 200.273Z" fill="white"/>
<path d="M832.253 196.222L826.689 197.201L826.713 155.023L832.278 154.044L832.269 173.446L844.989 151.805L851.666 150.63L837.792 174.279L851.994 192.746L845.843 193.828L832.266 176.156L832.253 196.222Z" fill="white"/>
<path d="M882.394 187.392L876.77 188.382L874.123 178.547L859.889 181.052L857.206 191.828L851.115 192.901L862.444 148.73L871.113 147.205L882.394 187.392ZM866.583 154.027L861.254 175.452L872.735 173.429L867.403 153.883L866.583 154.027Z" fill="white"/>
<path d="M573.099 310.048C570.856 308.978 568.963 307.274 567.422 304.933C565.88 302.592 564.821 299.788 564.241 296.515C563.455 292.075 563.541 287.784 564.499 283.637C565.456 279.492 567.168 276.028 569.635 273.246C572.102 270.46 575.073 268.762 578.549 268.151C582.219 267.502 585.415 268.265 588.135 270.437C590.855 272.611 592.796 275.844 593.959 280.138L588.394 281.117C587.585 278.367 586.351 276.347 584.693 275.049C583.034 273.757 581.093 273.304 578.866 273.696C576.641 274.09 574.718 275.341 573.099 277.455C571.48 279.568 570.366 282.213 569.763 285.393C569.156 288.57 569.158 291.876 569.764 295.302C570.398 298.885 571.64 301.577 573.49 303.384C575.339 305.184 577.532 305.865 580.071 305.418C582.297 305.023 584.147 303.875 585.622 301.969C587.097 300.063 588.144 297.567 588.767 294.486L594.273 293.516C593.525 298.388 591.971 302.349 589.611 305.395C587.251 308.44 584.196 310.293 580.447 310.954C577.792 311.422 575.343 311.121 573.099 310.048Z" fill="white"/>
<path d="M612.054 304.906L606.489 305.886L606.518 269.189L596.325 270.983L596.322 265.503L622.27 260.932L622.274 266.415L612.082 268.21L612.054 304.906Z" fill="white"/>
<path d="M633.784 299.362C631.54 298.292 629.647 296.588 628.107 294.244C626.565 291.905 625.505 289.102 624.926 285.829C624.14 281.389 624.226 277.095 625.183 272.95C626.141 268.806 627.853 265.339 630.32 262.557C632.787 259.774 635.757 258.076 639.233 257.462C641.849 257.003 644.289 257.304 646.552 258.374C648.815 259.441 650.717 261.145 652.259 263.483C653.8 265.825 654.861 268.628 655.44 271.898C656.226 276.341 656.13 280.635 655.153 284.785C654.175 288.933 652.454 292.399 649.987 295.182C647.52 297.968 644.568 299.663 641.132 300.268C638.476 300.736 636.028 300.434 633.784 299.362ZM646.524 290.973C648.143 288.86 649.253 286.206 649.855 283.005C650.457 279.808 650.454 276.493 649.847 273.064C649.22 269.522 647.982 266.847 646.132 265.044C644.282 263.241 642.089 262.563 639.551 263.01C637.325 263.401 635.403 264.655 633.783 266.769C632.164 268.882 631.051 271.524 630.447 274.707C629.841 277.884 629.842 281.19 630.449 284.616C631.083 288.199 632.324 290.891 634.174 292.695C636.023 294.498 638.216 295.176 640.756 294.729C642.982 294.337 644.904 293.086 646.524 290.973Z" fill="white"/>
<path d="M663.366 295.869L657.333 296.933L668.311 252.826L676.98 251.298L687.851 291.558L682.228 292.548L673.27 257.976L672.333 258.143L663.366 295.869Z" fill="white"/>
<path d="M699.624 289.485L691.424 290.929L691.448 248.752L697.013 247.77L696.967 280.614L697.787 280.468L709.841 245.51L718.042 244.066L718.017 286.244L712.452 287.226L712.44 254.39L711.62 254.536L699.624 289.485Z" fill="white"/>
<path d="M755.488 288.082L749.865 289.07L749.882 280.635L725.924 284.853L725.89 242.687L731.454 241.705L731.464 278.273L746.226 275.675L746.216 239.106L751.781 238.127L751.79 274.693L755.48 274.044L755.488 288.082Z" fill="white"/>
<path d="M788.366 273.857L782.743 274.847L780.096 265.012L765.862 267.517L763.178 278.294L757.086 279.366L768.415 235.195L777.085 233.67L788.366 273.857ZM772.555 240.492L767.226 261.917L778.706 259.894L773.374 240.349L772.555 240.492Z" fill="white"/>
<path d="M809.569 270.124L804.004 271.103L804.029 228.926L809.594 227.944L809.581 245.96L824.87 243.268L824.882 225.252L830.447 224.273L830.423 266.45L824.858 267.432L824.857 248.994L809.567 251.686L809.569 270.124Z" fill="white"/>
<path d="M865.919 260.201L860.296 261.189L857.648 251.353L843.414 253.861L840.732 264.635L834.639 265.708L845.969 221.54L854.638 220.014L865.919 260.201ZM850.107 226.836L844.778 248.258L856.259 246.238L850.928 226.69L850.107 226.836Z" fill="white"/>
<path d="M889.054 254.411C886.81 253.338 884.917 251.634 883.377 249.293C881.835 246.954 880.775 244.148 880.196 240.875C879.41 236.435 879.496 232.144 880.453 227.996C881.411 223.855 883.123 220.388 885.59 217.605C888.057 214.82 891.027 213.122 894.503 212.511C898.173 211.865 901.369 212.625 904.089 214.797C906.809 216.971 908.751 220.204 909.914 224.498L904.349 225.477C903.539 222.729 902.306 220.707 900.647 219.412C898.989 218.117 897.047 217.667 894.821 218.059C892.595 218.45 890.673 219.704 889.053 221.814C887.434 223.928 886.321 226.573 885.717 229.753C885.111 232.93 885.112 236.236 885.719 239.662C886.353 243.245 887.594 245.94 889.444 247.743C891.293 249.544 893.486 250.225 896.025 249.778C898.252 249.386 900.102 248.237 901.577 246.329C903.051 244.423 904.099 241.927 904.722 238.846L910.228 237.876C909.479 242.748 907.926 246.709 905.565 249.754C903.205 252.803 900.151 254.653 896.402 255.314C893.746 255.781 891.297 255.48 889.054 254.411Z" fill="white"/>
<path d="M921.799 250.359L916.234 251.339L916.259 209.161L942.618 204.52L942.594 246.697L937.029 247.676L937.009 211.049L921.779 213.733L921.799 250.359Z" fill="white"/>
<path d="M957.997 242.269C955.754 241.196 953.861 239.492 952.32 237.151C950.778 234.813 949.718 232.007 949.139 228.733C948.353 224.293 948.439 220.002 949.396 215.858C950.354 211.713 952.066 208.246 954.533 205.464C957 202.681 959.971 200.983 963.447 200.369C966.063 199.91 968.502 200.211 970.765 201.278C973.028 202.348 974.93 204.049 976.472 206.387C978.013 208.732 979.074 211.535 979.653 214.805C980.439 219.248 980.343 223.542 979.366 227.692C978.388 231.84 976.667 235.304 974.2 238.089C971.733 240.872 968.781 242.567 965.345 243.172C962.689 243.64 960.24 243.339 957.997 242.269ZM970.737 233.88C972.356 231.767 973.466 229.11 974.068 225.912C974.67 222.712 974.667 219.4 974.06 215.972C973.433 212.429 972.194 209.755 970.345 207.948C968.496 206.148 966.302 205.47 963.765 205.917C961.538 206.308 959.616 207.562 957.996 209.673C956.377 211.786 955.264 214.431 954.66 217.611C954.054 220.791 954.056 224.094 954.662 227.523C955.297 231.106 956.538 233.798 958.387 235.602C960.236 237.405 962.43 238.083 964.969 237.636C967.194 237.244 969.118 235.993 970.737 233.88Z" fill="white"/>
<path d="M986.173 239.022L986.198 196.844L998.733 194.637C1000.72 194.287 1002.6 194.462 1004.35 195.155C1006.11 195.85 1007.58 196.976 1008.78 198.531C1009.99 200.089 1010.78 201.936 1011.16 204.075C1011.62 206.726 1011.46 209.275 1010.67 211.725C1009.87 214.174 1008.54 216.246 1006.66 217.942C1004.79 219.637 1002.54 220.715 999.928 221.177L991.726 222.621L991.738 238.042L986.173 239.022ZM999.737 215.668C1001.14 215.419 1002.34 214.797 1003.33 213.8C1004.32 212.8 1005.03 211.573 1005.46 210.111C1005.88 208.65 1005.96 207.124 1005.67 205.525C1005.34 203.654 1004.56 202.216 1003.34 201.205C1002.11 200.2 1000.7 199.834 999.098 200.115L991.777 201.407L991.771 217.071L999.737 215.668Z" fill="white"/>
<path d="M1029.29 231.431L1023.72 232.41L1023.75 195.716L1013.56 197.511L1013.55 192.027L1039.5 187.459L1039.5 192.939L1029.31 194.734L1029.29 231.431Z" fill="white"/>
<path d="M1069 224.436L1063.38 225.427L1060.73 215.592L1046.5 218.099L1043.81 228.873L1037.72 229.946L1049.05 185.778L1057.72 184.249L1069 224.436ZM1053.19 191.074L1047.86 212.496L1059.34 210.474L1054.01 190.928L1053.19 191.074Z" fill="white"/>
<path d="M569.383 374.252L565.399 374.954L565.377 346.561L569.36 345.859L569.387 358.876L579.101 344.143L584.111 343.262L573.428 359.423L584.449 371.598L579.834 372.411L569.36 360.788L569.383 374.252Z" fill="white"/>
<path d="M608.113 367.432L604.011 368.153L601.848 361.679L590.411 363.693L588.275 370.924L583.857 371.703L592.984 341.7L598.979 340.643L608.113 367.432ZM595.781 345.548L591.577 359.715L600.688 358.11L596.45 345.429L595.781 345.548Z" fill="white"/>
<path d="M614.739 366.264L610.755 366.965L610.733 338.574L614.715 337.872L614.733 349.918L627.196 347.724L627.179 335.677L631.162 334.976L631.185 363.369L627.201 364.07L627.182 351.781L614.718 353.976L614.739 366.264Z" fill="white"/>
<path d="M638.155 367.822L634.171 368.523L634.17 358.867L636.655 358.43L643.743 332.76L649.739 331.705L656.889 354.867L659.372 354.429L659.373 364.083L655.39 364.785L655.401 359.104L638.165 362.14L638.155 367.822ZM646.657 336.588L640.993 357.665L652.826 355.582L647.131 336.506L646.657 336.588Z" fill="white"/>
<path d="M667.864 356.909L662.065 357.931L662.043 329.538L666.025 328.836L666.021 350.866L666.652 350.755L676.715 326.954L682.511 325.934L682.535 354.325L678.551 355.027L678.517 333.006L677.925 333.109L667.864 356.909Z" fill="white"/>
<path d="M689.505 358.778L685.521 359.48L685.519 349.825L688.004 349.387L695.093 323.718L701.088 322.663L708.238 345.824L710.722 345.386L710.723 355.041L706.739 355.743L706.751 350.062L689.515 353.096L689.505 358.778ZM698.007 327.546L692.343 348.623L704.175 346.54L698.48 327.462L698.007 327.546Z" fill="white"/>
<path d="M734.91 345.102L730.809 345.824L728.647 339.35L717.208 341.364L715.072 348.595L710.654 349.374L719.782 319.37L725.776 318.314L734.91 345.102ZM722.578 323.218L718.376 337.386L727.485 335.781L723.247 323.102L722.578 323.218Z" fill="white"/>
<path d="M745.165 343.296L741.181 343.997L741.156 319.5L733.228 320.898L733.231 317.001L753.069 313.509L753.066 317.403L745.14 318.799L745.165 343.296Z" fill="white"/>
<path d="M391.745 327.617H388.271C388.271 291.97 417.346 262.969 453.083 262.969V266.434C419.261 266.434 391.745 293.881 391.745 327.617Z" fill="white"/>
<path d="M404.731 327.617H401.257C401.257 299.113 424.506 275.922 453.083 275.922V279.388C426.422 279.388 404.731 301.023 404.731 327.617Z" fill="white"/>
<path d="M417.717 327.617H414.243C414.243 306.255 431.667 288.875 453.083 288.875V292.341C433.582 292.341 417.717 308.165 417.717 327.617Z" fill="white"/>
<path d="M430.703 327.617H427.229C427.229 313.397 438.827 301.828 453.083 301.828V305.294C440.743 305.294 430.703 315.308 430.703 327.617Z" fill="white"/>
<path d="M517.895 327.617H514.421C514.421 293.881 486.905 266.434 453.083 266.434V262.969C488.82 262.969 517.895 291.97 517.895 327.617Z" fill="white"/>
<path d="M504.909 327.617H501.435C501.435 301.023 479.744 279.388 453.083 279.388V275.922C481.66 275.922 504.909 299.113 504.909 327.617Z" fill="white"/>
<path d="M491.923 327.617H488.449C488.449 308.165 472.584 292.341 453.083 292.341V288.875C474.499 288.875 491.923 306.255 491.923 327.617Z" fill="white"/>
<path d="M478.937 327.617H475.463C475.463 315.308 465.423 305.294 453.083 305.294V301.828C467.339 301.828 478.937 313.397 478.937 327.617Z" fill="white"/>
<path d="M453.083 392.169V388.703C486.905 388.703 514.421 361.257 514.421 327.521H517.895C517.895 363.168 488.82 392.169 453.083 392.169Z" fill="white"/>
<path d="M453.083 379.215V375.75C479.744 375.75 501.435 354.114 501.435 327.521H504.909C504.909 356.025 481.66 379.215 453.083 379.215Z" fill="white"/>
<path d="M453.083 366.263V362.797C472.584 362.797 488.449 346.972 488.449 327.521H491.923C491.923 348.883 474.499 366.263 453.083 366.263Z" fill="white"/>
<path d="M453.083 353.309V349.844C465.423 349.844 475.463 339.83 475.463 327.521H478.937C478.937 341.74 467.339 353.309 453.083 353.309Z" fill="white"/>
<path d="M453.083 392.169C417.346 392.169 388.271 363.168 388.271 327.521H391.745C391.745 361.257 419.261 388.703 453.083 388.703V392.169Z" fill="white"/>
<path d="M453.083 379.215C424.506 379.215 401.257 356.025 401.257 327.521H404.731C404.731 354.114 426.422 375.75 453.083 375.75V379.215Z" fill="white"/>
<path d="M453.083 366.263C431.667 366.263 414.243 348.883 414.243 327.521H417.717C417.717 346.972 433.582 362.797 453.083 362.797V366.263Z" fill="white"/>
<path d="M453.083 353.309C438.827 353.309 427.229 341.74 427.229 327.521H430.703C430.703 339.83 440.743 349.844 453.083 349.844V353.309Z" fill="white"/>
<path d="M453.083 405C410.303 405 375.458 370.287 375.407 327.618V327.52C375.458 284.851 410.303 250.138 453.083 250.138C495.863 250.138 530.708 284.851 530.759 327.52V327.617C530.708 370.287 495.863 405 453.083 405ZM378.851 327.615C378.9 368.391 412.2 401.564 453.083 401.564C493.966 401.564 527.266 368.391 527.315 327.615V327.522C527.266 286.747 493.966 253.573 453.083 253.573C412.2 253.573 378.9 286.747 378.851 327.523L377.129 327.617L378.851 327.615Z" fill="white"/>
<path d="M151.892 214.837H148.418C148.418 179.19 177.493 150.189 213.23 150.189V153.655C179.408 153.655 151.892 181.101 151.892 214.837Z" fill="white"/>
<path d="M164.878 214.837H161.404C161.404 186.333 184.653 163.142 213.23 163.142V166.608C186.569 166.608 164.878 188.243 164.878 214.837Z" fill="white"/>
<path d="M177.864 214.837H174.39C174.39 193.475 191.814 176.095 213.23 176.095V179.561C193.73 179.561 177.864 195.385 177.864 214.837Z" fill="white"/>
<path d="M190.85 214.837H187.376C187.376 200.617 198.974 189.048 213.23 189.048V192.514C200.89 192.514 190.85 202.528 190.85 214.837Z" fill="white"/>
<path d="M203.837 214.837H200.362C200.362 207.76 206.135 202.001 213.23 202.001V205.467C208.051 205.467 203.837 209.67 203.837 214.837Z" fill="white"/>
<path d="M278.042 214.837H274.568C274.568 181.101 247.052 153.655 213.23 153.655V150.189C248.968 150.189 278.042 179.19 278.042 214.837Z" fill="white"/>
<path d="M265.056 214.837H261.582C261.582 188.243 239.892 166.608 213.23 166.608V163.142C241.807 163.142 265.056 186.333 265.056 214.837Z" fill="white"/>
<path d="M252.07 214.837H248.596C248.596 195.385 232.731 179.561 213.23 179.561V176.095C234.647 176.095 252.07 193.475 252.07 214.837Z" fill="white"/>
<path d="M239.084 214.837H235.61C235.61 202.528 225.571 192.514 213.23 192.514V189.048C227.486 189.048 239.084 200.617 239.084 214.837Z" fill="white"/>
<path d="M226.098 214.837H222.624C222.624 209.67 218.41 205.467 213.23 205.467V202.001C220.326 202.001 226.098 207.76 226.098 214.837Z" fill="white"/>
<path d="M213.23 279.389V275.923C247.052 275.923 274.568 248.477 274.568 214.741H278.042C278.042 250.388 248.968 279.389 213.23 279.389Z" fill="white"/>
<path d="M213.23 266.435V262.97C239.892 262.97 261.582 241.335 261.582 214.741H265.056C265.056 243.245 241.807 266.435 213.23 266.435Z" fill="white"/>
<path d="M213.23 253.483V250.017C232.731 250.017 248.596 234.192 248.596 214.741H252.07C252.07 236.103 234.647 253.483 213.23 253.483Z" fill="white"/>
<path d="M213.23 240.529V237.064C225.571 237.064 235.61 227.05 235.61 214.741H239.084C239.084 228.96 227.486 240.529 213.23 240.529Z" fill="white"/>
<path d="M213.23 227.577V224.111C218.41 224.111 222.624 219.908 222.624 214.741H226.098C226.098 221.818 220.326 227.577 213.23 227.577Z" fill="white"/>
<path d="M213.23 279.389C177.493 279.389 148.418 250.388 148.418 214.741H151.892C151.892 248.477 179.408 275.923 213.23 275.923V279.389Z" fill="white"/>
<path d="M213.23 266.435C184.653 266.435 161.404 243.245 161.404 214.741H164.878C164.878 241.335 186.569 262.97 213.23 262.97V266.435Z" fill="white"/>
<path d="M213.23 253.483C191.814 253.483 174.39 236.103 174.39 214.741H177.864C177.864 234.192 193.73 250.017 213.23 250.017V253.483Z" fill="white"/>
<path d="M213.23 240.529C198.974 240.529 187.376 228.96 187.376 214.741H190.85C190.85 227.05 200.89 237.064 213.23 237.064V240.529Z" fill="white"/>
<path d="M213.23 227.577C206.135 227.577 200.362 221.818 200.362 214.741H203.837C203.837 219.908 208.051 224.111 213.23 224.111V227.577Z" fill="white"/>
<path d="M344.824 245.736L342.418 243.238L376.544 210.548C384.049 203.486 389.731 195.094 393.441 185.596C403.038 161.025 397.525 132.76 379.394 113.586L381.92 111.209C400.967 131.35 406.76 161.043 396.678 186.853C392.779 196.835 386.811 205.651 378.939 213.058L344.824 245.736Z" fill="white"/>
<path d="M370.029 203.636L367.645 201.115C390.016 180.067 391.048 144.789 369.947 122.474L372.474 120.097C394.89 143.801 393.793 181.277 370.029 203.636Z" fill="white"/>
<path d="M361.118 194.214L358.734 191.692C367.048 183.87 371.81 173.287 372.144 161.892C372.477 150.498 368.342 139.655 360.5 131.363L363.027 128.985C371.506 137.951 375.977 149.674 375.616 161.993C375.256 174.314 370.107 185.756 361.118 194.214Z" fill="white"/>
<path d="M352.208 184.791L349.824 182.269C361.777 171.023 362.329 152.173 351.054 140.25L353.581 137.873C366.17 151.186 365.554 172.233 352.208 184.791Z" fill="white"/>
<path d="M343.297 175.368L340.913 172.847C344.181 169.773 346.052 165.614 346.183 161.136C346.314 156.659 344.689 152.397 341.607 149.138L344.134 146.761C347.853 150.693 349.814 155.834 349.655 161.237C349.497 166.641 347.239 171.659 343.297 175.368Z" fill="white"/>
<path d="M379.498 113.623C352.688 86.8826 309.067 86.8826 282.259 113.623L279.802 111.172C307.966 83.0811 353.79 83.0811 381.954 111.172L379.498 113.623Z" fill="white"/>
<path d="M291.441 122.782L288.985 120.331C312.085 97.2901 349.671 97.2901 372.772 120.332L370.315 122.781C348.569 101.091 313.187 101.09 291.441 122.782Z" fill="white"/>
<path d="M361.133 131.941C353.052 123.88 342.307 119.441 330.878 119.441C319.449 119.441 308.705 123.88 300.624 131.941L298.167 129.492C306.905 120.776 318.522 115.976 330.878 115.976C343.235 115.976 354.852 120.776 363.589 129.492L361.133 131.941Z" fill="white"/>
<path d="M351.95 141.1C346.322 135.486 338.838 132.394 330.878 132.394C322.918 132.394 315.435 135.486 309.806 141.1L307.35 138.651C313.634 132.382 321.99 128.929 330.878 128.929C339.766 128.929 348.122 132.382 354.407 138.651L351.95 141.1Z" fill="white"/>
<path d="M342.768 150.259C339.592 147.092 335.369 145.347 330.878 145.347C326.387 145.347 322.164 147.092 318.989 150.259L316.532 147.81C320.364 143.987 325.459 141.882 330.878 141.882C336.297 141.882 341.392 143.987 345.224 147.81L342.768 150.259Z" fill="white"/>
<path d="M367.601 201.161L265.1 304.935L267.575 307.367L370.075 203.593L367.601 201.161Z" fill="white"/>
<path d="M358.7 191.744L255.155 296.312L257.627 298.748L361.171 194.179L358.7 191.744Z" fill="white"/>
<path d="M350.47 182.311L247.294 286.75L249.768 289.182L352.944 184.743L350.47 182.311Z" fill="white"/>
<path d="M340.867 172.888L256.622 258.057L259.095 260.491L343.339 175.322L340.867 172.888Z" fill="white"/>
<path d="M316.736 147.367L297.75 167.844L300.3 170.197L319.286 149.719L316.736 147.367Z" fill="white"/>
<path d="M307.833 137.935L287.82 159.223L290.354 161.593L310.367 140.305L307.833 137.935Z" fill="white"/>
<path d="M299.612 128.519L279.941 149.651L282.487 152.009L302.158 130.877L299.612 128.519Z" fill="white"/>
<path d="M290.018 119.082L269.023 141.16L271.542 143.544L292.538 121.466L290.018 119.082Z" fill="white"/>
<path d="M281.081 109.789L260.085 131.867L262.605 134.251L283.601 112.173L281.081 109.789Z" fill="white"/>
<path d="M391.102 281.677L267.02 303.5L267.648 307.051L391.729 285.227L391.102 281.677Z" fill="white"/>
<path d="M404.614 267.335L281.722 289.003L282.339 292.485L405.231 270.816L404.614 267.335Z" fill="white"/>
<path d="M405.809 255.162L296.424 274.509L297.03 277.92L406.415 258.573L405.809 255.162Z" fill="white"/>
<path d="M399.53 244.697L309.802 260.548L310.408 263.961L400.136 248.11L399.53 244.697Z" fill="white"/>
<path d="M393.252 234.234L323.181 246.585L323.785 249.998L393.857 237.647L393.252 234.234Z" fill="white"/>
<path d="M197.009 273.862L28.4926 303.5L29.1201 307.05L197.636 277.412L197.009 273.862Z" fill="white"/>
<path d="M177.804 265.269L43.1943 289.003L43.8113 292.485L178.421 268.75L177.804 265.269Z" fill="white"/>
<path d="M167.281 255.162L57.8965 274.509L58.5029 277.92L167.888 258.573L167.281 255.162Z" fill="white"/>
<path d="M158.659 245.11L71.2749 260.55L71.8807 263.962L159.265 248.521L158.659 245.11Z" fill="white"/>
<path d="M154.725 234.234L84.6529 246.585L85.2575 249.998L155.329 237.647L154.725 234.234Z" fill="white"/>
<path d="M106.389 245.736L103.983 243.238L138.11 210.548C145.615 203.486 151.296 195.094 155.006 185.596C164.604 161.025 159.09 132.76 140.959 113.586L143.486 111.209C162.533 131.35 168.325 161.043 158.243 186.853C154.344 196.835 148.376 205.651 140.505 213.058L106.389 245.736Z" fill="white"/>
<path d="M131.594 203.636L129.21 201.115C151.581 180.067 152.614 144.789 131.512 122.474L134.039 120.097C156.455 143.801 155.358 181.277 131.594 203.636Z" fill="white"/>
<path d="M122.684 194.214L120.3 191.692C128.614 183.87 133.376 173.287 133.709 161.892C134.043 150.498 129.908 139.655 122.066 131.363L124.593 128.985C133.071 137.951 137.542 149.674 137.182 161.993C136.821 174.314 131.672 185.756 122.684 194.214Z" fill="white"/>
<path d="M113.773 184.791L111.389 182.269C123.342 171.023 123.894 152.173 112.619 140.25L115.146 137.873C127.735 151.186 127.119 172.233 113.773 184.791Z" fill="white"/>
<path d="M104.862 175.368L102.479 172.847C105.746 169.773 107.617 165.614 107.748 161.136C107.879 156.659 106.254 152.397 103.173 149.138L105.7 146.761C109.418 150.693 111.379 155.834 111.221 161.237C111.063 166.641 108.804 171.659 104.862 175.368Z" fill="white"/>
<path d="M141.063 113.623C114.254 86.8826 70.6331 86.8826 43.824 113.623L41.3675 111.172C69.5311 83.0811 115.356 83.0811 143.519 111.172L141.063 113.623Z" fill="white"/>
<path d="M53.0063 122.782L50.5499 120.331C73.6501 97.2901 111.237 97.2901 134.337 120.332L131.88 122.781C110.135 101.091 74.752 101.09 53.0063 122.782Z" fill="white"/>
<path d="M122.698 131.941C114.617 123.88 103.872 119.441 92.4436 119.441C81.015 119.441 70.2702 123.88 62.1889 131.941L59.7325 129.492C68.47 120.776 80.0869 115.976 92.4436 115.976C104.8 115.976 116.417 120.776 125.155 129.492L122.698 131.941Z" fill="white"/>
<path d="M113.516 141.1C107.887 135.486 100.403 132.394 92.4434 132.394C84.4833 132.394 77.0001 135.486 71.3715 141.1L68.915 138.651C75.1996 132.382 83.5554 128.929 92.4434 128.929C101.331 128.929 109.687 132.382 115.972 138.651L113.516 141.1Z" fill="white"/>
<path d="M104.333 150.259C101.157 147.092 96.9348 145.347 92.4436 145.347C87.9525 145.347 83.7297 147.092 80.5539 150.259L78.0974 147.81C81.9295 143.987 87.0244 141.882 92.4436 141.882C97.8629 141.882 102.958 143.987 106.79 147.81L104.333 150.259Z" fill="white"/>
<path d="M129.166 201.161L26.6655 304.935L29.14 307.367L131.641 203.593L129.166 201.161Z" fill="white"/>
<path d="M120.265 191.744L16.72 296.312L19.1919 298.748L122.737 194.179L120.265 191.744Z" fill="white"/>
<path d="M112.03 182.306L8.86383 286.755L11.3382 289.186L114.505 184.738L112.03 182.306Z" fill="white"/>
<path d="M102.432 172.888L0.00247192 276.442L2.47521 278.875L104.905 175.322L102.432 172.888Z" fill="white"/>
<path d="M78.3014 147.367L59.3151 167.844L61.8654 170.197L80.8517 149.719L78.3014 147.367Z" fill="white"/>
<path d="M69.3985 137.935L49.3849 159.223L51.9189 161.593L71.9325 140.305L69.3985 137.935Z" fill="white"/>
<path d="M61.1772 128.519L41.506 149.651L44.0519 152.009L63.7231 130.877L61.1772 128.519Z" fill="white"/>
<path d="M51.5834 119.082L30.5878 141.16L33.1077 143.544L54.1033 121.466L51.5834 119.082Z" fill="white"/>
<path d="M42.6468 109.789L21.6507 131.867L24.1706 134.251L45.1667 112.173L42.6468 109.789Z" fill="white"/>
<path d="M391.62 214.837H388.146C388.146 179.19 417.221 150.189 452.958 150.189V153.655C419.136 153.655 391.62 181.101 391.62 214.837Z" fill="white"/>
<path d="M404.606 214.837H401.132C401.132 186.333 424.381 163.142 452.958 163.142V166.608C426.297 166.608 404.606 188.243 404.606 214.837Z" fill="white"/>
<path d="M417.592 214.837H414.118C414.118 193.475 431.542 176.095 452.958 176.095V179.561C433.457 179.561 417.592 195.385 417.592 214.837Z" fill="white"/>
<path d="M430.578 214.837H427.104C427.104 200.617 438.702 189.048 452.958 189.048V192.514C440.618 192.514 430.578 202.528 430.578 214.837Z" fill="white"/>
<path d="M443.564 214.837H440.09C440.09 207.76 445.863 202.001 452.958 202.001V205.467C447.778 205.467 443.564 209.67 443.564 214.837Z" fill="white"/>
<path d="M517.77 214.837H514.296C514.296 181.101 486.78 153.655 452.958 153.655V150.189C488.695 150.189 517.77 179.19 517.77 214.837Z" fill="white"/>
<path d="M504.784 214.837H501.31C501.31 188.243 479.619 166.608 452.958 166.608V163.142C481.535 163.142 504.784 186.333 504.784 214.837Z" fill="white"/>
<path d="M491.798 214.837H488.324C488.324 195.385 472.459 179.561 452.958 179.561V176.095C474.374 176.095 491.798 193.475 491.798 214.837Z" fill="white"/>
<path d="M478.812 214.837H475.338C475.338 202.528 465.298 192.514 452.958 192.514V189.048C467.214 189.048 478.812 200.617 478.812 214.837Z" fill="white"/>
<path d="M465.826 214.837H462.352C462.352 209.67 458.138 205.467 452.958 205.467V202.001C460.053 202.001 465.826 207.76 465.826 214.837Z" fill="white"/>
<path d="M494.767 264.14L492.525 261.494C506.361 249.832 514.296 232.791 514.296 214.741H517.77C517.77 233.813 509.386 251.819 494.767 264.14Z" fill="white"/>
<path d="M481.673 257.782L479.746 254.898C493.248 245.919 501.31 230.906 501.31 214.741H504.784C504.784 232.067 496.144 248.157 481.673 257.782Z" fill="white"/>
<path d="M452.958 253.483V250.017C472.459 250.017 488.324 234.192 488.324 214.741H491.798C491.798 236.103 474.374 253.483 452.958 253.483Z" fill="white"/>
<path d="M452.958 240.529V237.064C465.298 237.064 475.338 227.05 475.338 214.741H478.812C478.812 228.96 467.214 240.529 452.958 240.529Z" fill="white"/>
<path d="M452.958 227.577V224.111C458.138 224.111 462.352 219.908 462.352 214.741H465.826C465.826 221.818 460.053 227.577 452.958 227.577Z" fill="white"/>
<path d="M411.258 264.233C396.57 251.907 388.146 233.868 388.146 214.741H391.62C391.62 232.843 399.593 249.915 413.495 261.582L411.258 264.233Z" fill="white"/>
<path d="M424.339 257.845C409.807 248.227 401.132 232.114 401.132 214.741H404.606C404.606 230.949 412.701 245.984 426.259 254.958L424.339 257.845Z" fill="white"/>
<path d="M452.958 253.483C431.542 253.483 414.118 236.103 414.118 214.741H417.592C417.592 234.192 433.457 250.017 452.958 250.017V253.483Z" fill="white"/>
<path d="M452.958 240.529C438.702 240.529 427.104 228.96 427.104 214.741H430.578C430.578 227.05 440.618 237.064 452.958 237.064V240.529Z" fill="white"/>
<path d="M452.958 227.577C445.863 227.577 440.09 221.818 440.09 214.741H443.564C443.564 219.908 447.778 224.111 452.958 224.111V227.577Z" fill="white"/>
</g>
<defs>
<clipPath id="clip0_1_1050">
<rect width="1069" height="405" fill="white"/>
</clipPath>
</defs>
</svg>
