<svg width="145" height="130" viewBox="0 0 145 130" fill="none" xmlns="http://www.w3.org/2000/svg">
<g clip-path="url(#clip0_7_487)">
<path d="M87.6084 52.0649H52.6686V87.0046H87.6084V52.0649Z" fill="#F2FFEB"/>
<path d="M63.5839 71.3778L67.481 67.4806C82.5514 52.4103 82.5514 27.9802 67.481 12.9131C52.414 -2.15724 27.9807 -2.15724 12.9134 12.9131C-2.15673 27.9802 -2.15673 52.4103 12.9134 67.4806L56.7105 111.278L80.097 87.8911L63.5839 71.3778Z" fill="#F2FFEB"/>
<path d="M72.5001 127.067L12.9132 67.4806C-2.15715 52.4103 -2.15715 27.9802 12.9132 12.9131C27.9803 -2.15725 52.4136 -2.15725 67.4808 12.9131C82.551 27.9802 82.551 52.4103 67.4808 67.4806L63.5835 71.3779" stroke="#43D300" stroke-width="3.22084" stroke-miterlimit="10"/>
<path d="M64.5057 103.482L20.7086 59.6855C9.94465 48.9215 9.94465 31.471 20.7086 20.7069C31.4726 9.94602 48.9233 9.94602 59.6873 20.7069C70.4481 31.471 70.4481 48.9215 59.6873 59.6855L55.7868 63.5795" stroke="#43D300" stroke-width="3.22084" stroke-miterlimit="10"/>
<path d="M72.3014 95.6865L28.5043 51.8895C22.0465 45.4317 22.0465 34.9608 28.5043 28.503C34.9621 22.0452 45.433 22.0452 51.8908 28.503C58.3486 34.9608 58.3486 45.4317 51.8908 51.8895L47.9872 55.7836" stroke="#43D300" stroke-width="3.22084" stroke-miterlimit="10"/>
<path d="M80.097 87.8915L36.2999 44.0945C34.1483 41.943 34.1483 38.4517 36.2999 36.3002C38.4513 34.1454 41.9429 34.1454 44.0943 36.3002C46.2491 38.4517 46.2491 41.943 44.0943 44.0945L40.1907 47.9854" stroke="#43D300" stroke-width="3.22084" stroke-miterlimit="10"/>
<path d="M49.8028 102.991L73.1893 126.378L132.086 67.4783C147.156 52.4112 147.156 27.9811 132.086 12.9107C117.018 -2.15643 92.5885 -2.15643 77.5181 12.9107C62.4509 27.9811 62.4509 52.4112 77.5181 67.4783L81.4152 71.3787C73.6595 79.1345 49.8028 102.991 49.8028 102.991Z" fill="#F2FFEB"/>
<path d="M71.3579 128.21L132.087 67.4807C147.157 52.4103 147.157 27.9802 132.087 12.9131C117.02 -2.15722 92.5863 -2.15722 77.5192 12.9131C62.4488 27.9802 62.4488 52.4103 77.5192 67.4807L81.4165 71.3779" stroke="#43D300" stroke-width="3.22084" stroke-miterlimit="10"/>
<path d="M63.5625 120.414L124.291 59.6855C135.055 48.9214 135.055 31.4709 124.291 20.7068C113.527 9.94604 96.0768 9.94604 85.316 20.7068C74.552 31.4709 74.552 48.9214 85.3128 59.6855L89.2133 63.5794" stroke="#43D300" stroke-width="3.22084" stroke-miterlimit="10"/>
<path d="M55.7668 112.618L116.496 51.8895C122.953 45.4318 122.953 34.9608 116.496 28.5029C110.038 22.0452 99.567 22.0452 93.1092 28.5029C86.6514 34.9607 86.6514 45.4317 93.1092 51.8895L97.0128 55.7835" stroke="#43D300" stroke-width="3.22084" stroke-miterlimit="10"/>
<path d="M47.9714 104.824L108.7 44.0946C110.852 41.9431 110.852 38.4517 108.7 36.3002C106.549 34.1454 103.057 34.1454 100.906 36.3002C98.7512 38.4517 98.7512 41.9431 100.906 44.0946L104.81 47.9854" stroke="#43D300" stroke-width="3.22084" stroke-miterlimit="10"/>
</g>
<defs>
<clipPath id="clip0_7_487">
<rect width="145" height="129.348" fill="white"/>
</clipPath>
</defs>
</svg>
